<?xml version="1.0" encoding="utf-8"?>
<!-- Generator: Adobe Illustrator 24.3.0, SVG Export Plug-In . SVG Version: 6.00 Build 0)  -->
<svg version="1.1" id="Layer_1" xmlns="http://www.w3.org/2000/svg" xmlns:xlink="http://www.w3.org/1999/xlink" x="0px" y="0px"
	 viewBox="0 0 3086.9 579.3" style="enable-background:new 0 0 3086.9 579.3;" xml:space="preserve">
<style type="text/css">
	.st0{fill:#FCF300;}
	.st1{fill:#FFFFFF;}
	.st2{fill:#FFEC00;}
</style>
<g>
	<path class="st0" d="M823.4,283.2l-10.7-9.3L979.9,0.1L784.1,249l-21.2-18.4L729,201.1l-29.4,26L601.5,314l-7.9,7l-8.3-7.3
		l-98.3-86.9l-29.5-26l-33.9,29.5L402,249L206.4,0.5L373.5,274l-10.4,9.1L31.6,573.1h210.6l178.1-196.2l9.5-10.6l6.7,10.9l47.4,77.7
		l16.5,27l29-20.1l64-44.4l63.7,44l29,20.1l16.3-27l47.4-77.7l6.4-10.5l9.8,10.9l178.1,196.2h213.3L823.4,283.2z M514.1,391.3
		L472,337.9l-7.7-9.7l0,0l58.5,40.5l9.3,6.4L514.1,391.3z M672.5,390.8L654.6,375l8.9-6.2l57.4-39.6l-6.6,8.3L672.5,390.8z"/>
	<g>
		<path class="st1" d="M1324.6,287.3h-55.4V4.8h70.2l91.5,200.4l91.5-200.4h70.2v282.5h-55.4V102.1l-83.7,185.2h-45.2l-83.7-185.2
			V287.3z"/>
		<path class="st1" d="M1623,146.4c0-98.1,67.8-142.9,155.6-142.9c88.3,0,156,44.8,156,142.9c0,97.7-67.8,142.5-156,142.5
			C1690.7,288.9,1623,244.2,1623,146.4z M1678.8,146.4c0,49.7,25.5,89.5,99.8,89.5c74.7,0,99.8-39.8,99.8-89.5s-25.1-89.9-99.8-89.9
			C1704.3,56.5,1678.8,96.7,1678.8,146.4z"/>
		<path class="st1" d="M2232.4,287.3h-55.8V166.1h-156.2v121.1h-55.8V4.8h55.8v108.8h156.2V4.8h55.8V287.3z"/>
		<path class="st1" d="M2398.3,114.8c-48.9-2.9-79.2-11.9-79.2-29.1c0-17.3,23.8-29.1,73.9-29.1c29.1,0,73.1,6.6,91.1,11.1
			l11.5-51.7c-26.3-7-65.7-12.3-102.6-12.3c-63.2,0-129.8,18.5-129.8,84.2c0,62.8,69,76.4,131.8,80c57.4,3.7,69.4,15.2,69.4,32.5
			c0,29.9-36.5,35.7-86.6,35.7c-7.3,0-14.6-0.3-22-0.8c1.8,5.6,2.8,11.7,2.8,17.9c0,10.2-2.5,19.7-7,28.1l-4,7
			c9.3,0.5,23.1,0.8,33.1,0.8c65.7,0,139.6-19.3,139.6-92.4C2520.3,132.9,2459.5,118.9,2398.3,114.8z"/>
		<path class="st1" d="M2771.9,57.3h-165.1v56.2H2721l-4.9,52.6h-109.2v68.6h170l-4.9,52.6h-220.5V4.8h225.4L2771.9,57.3z"/>
		<path class="st1" d="M3055.7,287.3h-66.1l-128.9-200l2.9,200h-55.8V4.8h66.1l128.5,200l-2-200h55.4L3055.7,287.3L3055.7,287.3z"/>
		<path class="st1" d="M1369.8,367.3c30.8,0,60.4,6.6,79.7,11.9l-12.3,49.3c-16-4.1-45.2-9-65.3-9c-32.4,0-46.8,2.5-46.8,11.5
			c0,8.6,13.6,11.1,41.9,13.6c41.1,4.1,98.9,9,98.9,63.6c0,50.9-39.8,70.2-105.1,70.2c-32.9,0-69-6.2-89.1-11.1L1284,518
			c13.2,3.3,49.3,8.2,76.8,8.2c54.6,0,49.3-9,49.3-15.2c0-6.6-18.9-9.4-53.4-13.2c-44.3-4.1-87.5-18.1-87.5-62.4
			C1269.2,382.5,1316.8,367.3,1369.8,367.3z"/>
		<path class="st1" d="M1677.3,423.2h-77.2v80.5c0,14.8,4.5,21.7,39.4,21.7c23.8,0,42.7-3.3,42.7-3.3l7.4,51.3c0,0-25.5,4.9-53,4.9
			c-43.1,0-92.4-11.5-92.4-74.7v-80.5h-34.9l4.5-52.6h32.9l18.5-45.2l34.9-3.7v48.9h82.1L1677.3,423.2z"/>
		<path class="st1" d="M1789,483.9c0,12.7-0.4,41.5,54.2,41.5c18.1,0,43.9-5.4,60-11.5V368.9h55.4v207.8h-48.9l-2.5-12.7
			c-19.7,7.4-46,14.4-68.6,14.4c-65.7,0-105.5-33.7-105.5-94.4V369h55.8L1789,483.9L1789,483.9z"/>
		<path class="st1" d="M2181.5,565.2c-18.5,7.4-41.5,13.2-64.5,13.2c-70.6,0-115-42.3-115-105.5s43.5-105.5,113.7-105.5
			c20.5,0,43.1,5.8,60.8,12.3V236.3l55.8,2.9v337.5h-49.3L2181.5,565.2z M2176.6,515.1v-83.3c-15.6-6.2-38.2-11.5-55.8-11.5
			c-60,0-62.4,37.8-62.4,52.6c0,14.8,2.5,52.6,62.4,52.6C2143.4,525.4,2162.2,520.5,2176.6,515.1z"/>
		<path class="st2" d="M2303,287.4c-19.3,0-34.9-15.6-34.9-35.3c0-19.3,15.6-34.9,34.9-34.9c19.7,0,35.3,15.6,35.3,34.9
			C2338.3,271.7,2322.7,287.4,2303,287.4z"/>
		<polygon class="st1" points="2331.3,575.7 2275.9,575.7 2275.9,303 2331.3,300.5 		"/>
		<g>
			<path class="st1" d="M2941.4,579.3h-461.2c-58.2,0-105.6-47.4-105.6-105.6s47.4-105.6,105.6-105.6h461.2
				c58.2,0,105.6,47.4,105.6,105.6C3047,531.9,2999.7,579.3,2941.4,579.3z M2480.3,416.4c-31.6,0-57.3,25.7-57.3,57.3
				s25.7,57.3,57.3,57.3h461.2c31.6,0,57.3-25.7,57.3-57.3s-25.7-57.3-57.3-57.3H2480.3z"/>
		</g>
	</g>
</g>
</svg>
