<?xml version="1.0" encoding="utf-8"?>
<!-- Generator: Adobe Illustrator 24.3.0, SVG Export Plug-In . SVG Version: 6.00 Build 0)  -->
<svg version="1.1" id="Layer_1" xmlns="http://www.w3.org/2000/svg" xmlns:xlink="http://www.w3.org/1999/xlink" x="0px" y="0px"
	 viewBox="0 0 1125 534.25" style="enable-background:new 0 0 1125 534.25;" xml:space="preserve">
<style type="text/css">
	.st0{fill:#FCF300;}
	.st1{fill:#FFFFFF;}
	.st2{fill:#FFEC00;}
</style>
<g>
	<path class="st0" d="M365.04,265.4l-2.94-2.56L408,187.69L354.24,256l-5.81-5.04l-9.31-8.11l-8.07,7.14l-26.95,23.86l-2.18,1.92
		l-2.28-2.01l-26.99-23.86l-8.11-7.14l-9.31,8.11l-5.87,5.14l-53.71-68.22l45.87,75.09l-2.86,2.51l-90.98,79.59h57.81l48.89-53.87
		l2.62-2.9l1.83,3l13.01,21.32l4.52,7.41l7.95-5.52l17.58-12.18l17.48,12.08l7.96,5.52l4.48-7.41l13.01-21.32l1.76-2.89l2.69,2.98
		l48.89,53.87h58.54L365.04,265.4z M280.12,295.06l-11.55-14.64l-2.1-2.67l0.01-0.01l16.06,11.12l2.56,1.77L280.12,295.06z
		 M323.59,294.93l-4.9-4.32l2.44-1.69l15.77-10.88l-1.8,2.29L323.59,294.93z"/>
	<g>
		<path class="st1" d="M502.62,266.51H487.4v-77.54h19.27l25.13,55l25.13-55h19.27v77.54H561v-50.83l-22.99,50.83h-12.4
			l-22.99-50.83V266.51z"/>
		<path class="st1" d="M584.52,227.85c0-26.94,18.6-39.22,42.72-39.22c24.23,0,42.83,12.29,42.83,39.22
			c0,26.82-18.6,39.11-42.83,39.11C603.12,266.96,584.52,254.68,584.52,227.85z M599.85,227.85c0,13.64,6.99,24.57,27.39,24.57
			c20.51,0,27.39-10.93,27.39-24.57s-6.88-24.68-27.39-24.68C606.84,203.17,599.85,214.21,599.85,227.85z"/>
		<path class="st1" d="M751.82,266.51h-15.33v-33.25H693.6v33.25h-15.33v-77.54h15.33v29.87h42.89v-29.87h15.33V266.51z"/>
		<path class="st1" d="M797.35,219.17c-13.41-0.79-21.75-3.27-21.75-8c0-4.74,6.54-8,20.29-8c8,0,20.06,1.8,25.02,3.05l3.15-14.2
			c-7.21-1.92-18.03-3.38-28.17-3.38c-17.36,0-35.62,5.07-35.62,23.11c0,17.24,18.93,20.96,36.18,21.97
			c15.77,1.02,19.05,4.17,19.05,8.91c0,8.22-10.03,9.81-23.78,9.81c-2,0-4.02-0.08-6.04-0.22c0.49,1.55,0.76,3.2,0.76,4.91
			c0,2.79-0.69,5.41-1.92,7.71l-1.11,1.91c2.55,0.15,6.33,0.23,9.1,0.23c18.03,0,38.32-5.3,38.32-25.36
			C830.83,224.13,814.15,220.3,797.35,219.17z"/>
		<path class="st1" d="M899.92,203.39h-45.31v15.44h31.33l-1.35,14.43h-29.98v18.82h46.66l-1.35,14.43H839.4v-77.54h61.88
			L899.92,203.39z"/>
		<path class="st1" d="M977.81,266.51h-18.15l-35.39-54.89l0.79,54.89h-15.33v-77.54h18.15l35.28,54.89l-0.56-54.89h15.22V266.51z"
			/>
		<path class="st1" d="M515.02,288.49c8.45,0,16.57,1.8,21.87,3.27l-3.38,13.52c-4.4-1.13-12.4-2.48-17.92-2.48
			c-8.9,0-12.85,0.68-12.85,3.16c0,2.37,3.72,3.04,11.5,3.72c11.27,1.13,27.16,2.48,27.16,17.47c0,13.98-10.93,19.27-28.85,19.27
			c-9.02,0-18.94-1.69-24.46-3.04l3.38-13.53c3.61,0.9,13.53,2.25,21.08,2.25c14.99,0,13.53-2.48,13.53-4.17
			c0-1.8-5.19-2.59-14.65-3.61c-12.17-1.13-24.01-4.96-24.01-17.13C487.4,292.66,500.48,288.49,515.02,288.49z"/>
		<path class="st1" d="M599.44,303.82h-21.19v22.09c0,4.06,1.24,5.97,10.82,5.97c6.54,0,11.72-0.9,11.72-0.9l2.03,14.09
			c0,0-6.99,1.35-14.54,1.35c-11.83,0-25.36-3.16-25.36-20.51v-22.09h-9.58l1.24-14.43h9.02l5.07-12.4l9.58-1.01v13.41h22.54
			L599.44,303.82z"/>
		<path class="st1" d="M630.1,320.5c0,3.49-0.11,11.38,14.88,11.38c4.96,0,12.06-1.47,16.46-3.16v-39.79h15.22v57.03h-13.41
			l-0.68-3.49c-5.41,2.03-12.62,3.95-18.82,3.95c-18.03,0-28.97-9.24-28.97-25.92v-31.56h15.33V320.5z"/>
		<path class="st1" d="M737.85,342.82c-5.07,2.03-11.38,3.61-17.7,3.61c-19.39,0-31.56-11.61-31.56-28.97
			c0-17.36,11.95-28.97,31.22-28.97c5.64,0,11.83,1.58,16.68,3.38v-39.34l15.33,0.79v92.66H738.3L737.85,342.82z M736.5,329.07
			v-22.88c-4.28-1.69-10.48-3.16-15.33-3.16c-16.46,0-17.13,10.37-17.13,14.43c0,4.06,0.68,14.43,17.13,14.43
			C727.37,331.88,732.55,330.53,736.5,329.07z"/>
		<path class="st2" d="M771.18,266.54c-5.3,0-9.58-4.28-9.58-9.69c0-5.3,4.28-9.58,9.58-9.58c5.41,0,9.69,4.28,9.69,9.58
			C780.87,262.25,776.59,266.54,771.18,266.54z"/>
		<polygon class="st1" points="778.95,345.7 763.74,345.7 763.74,270.82 778.95,270.14 		"/>
		<g>
			<path class="st1" d="M946.45,346.68H819.86c-15.98,0-28.98-13-28.98-28.98c0-15.98,13-28.98,28.98-28.98h126.59
				c15.98,0,28.98,13,28.98,28.98C975.43,333.68,962.43,346.68,946.45,346.68z M819.86,301.97c-8.67,0-15.73,7.06-15.73,15.73
				s7.06,15.73,15.73,15.73h126.59c8.67,0,15.73-7.06,15.73-15.73c0-8.67-7.06-15.73-15.73-15.73H819.86z"/>
		</g>
	</g>
</g>
</svg>
