<?xml version="1.0" encoding="utf-8"?>
<!-- Generator: Adobe Illustrator 24.3.0, SVG Export Plug-In . SVG Version: 6.00 Build 0)  -->
<svg version="1.1" id="Layer_1" xmlns="http://www.w3.org/2000/svg" xmlns:xlink="http://www.w3.org/1999/xlink" x="0px" y="0px"
	 viewBox="0 0 1125 534.25" style="enable-background:new 0 0 1125 534.25;" xml:space="preserve">
<style type="text/css">
	.st0{fill:#FCF300;}
</style>
<path class="st0" d="M772.8,263.86l-9.85-8.58L916.6,3.77L736.66,232.39l-19.43-16.87l-31.15-27.14l-27.01,23.91l-90.21,79.87
	l-7.28,6.43l-7.62-6.74l-90.34-79.87l-27.14-23.91l-31.15,27.14l-19.63,17.21L205.94,4.08L359.46,255.4l-9.59,8.4L45.38,530.17
	h193.48l163.62-180.29l8.78-9.72l6.13,10.03l43.55,71.34l15.12,24.81l26.62-18.48l58.82-40.75l58.49,40.44l26.62,18.48l14.99-24.81
	l43.55-71.34l5.9-9.66l9.01,9.97l163.62,180.29h195.93L772.8,263.86z M488.6,363.11l-38.64-48.98l-7.04-8.95l0.02-0.02l53.76,37.22
	l8.58,5.92L488.6,363.11z M634.08,362.67l-16.38-14.46l8.16-5.65l52.77-36.41l-6.03,7.66L634.08,362.67z"/>
</svg>
